<svg xmlns="http://www.w3.org/2000/svg" width="1656.1789" height="1246.1611" viewBox="0 0 1656.1789 1246.1611">
  <defs>
    <style>
      .cls-1 {
        fill: #352929;
      }

      .cls-2 {
        fill: #764e3e;
      }

      .cls-3 {
        fill: #876456;
      }
    </style>
  </defs>
  <g id="Livello_2" data-name="Livello 2">
    <g id="Livello_1-2" data-name="Livello 1">
      <g>
        <g>
          <path class="cls-1" d="M1362.7516,1217.3665c-91.46,64.07-236.77,18.77-263.58-111.51-12.26-59.58,3.74-114.66,31.39-167.15,18.38-34.9,44.33-62.87,72.58-88.7h17.03c-15.53,19.84-29.6,40-43.12,60.44-43.06,65.1-71.86,169.12-16.28,244.8,41.23,56.14,126.35,73.68,178.94,33.58,27.67-21.09,46.63-48.22,38.41-85.52-5.43-24.62-22.57-40.77-45.8-49.43-22.94-8.55-44.55-2.79-61.65,13.31-14,13.18-15.61,29.7-6.22,46.87a1.9142,1.9142,0,0,1-2.51,2.65c-14.79-7.48-21.61-20.98-19.72-39.11,3.41-32.77,25.16-50.2,61.72-56.91,42.98-7.89,100.33,24.26,102.95,79.66.11,2.24-.3,4.7.28,6.96a1.9248,1.9248,0,0,0,3.65.16c11.54-30.82-6.91-71.32-43.29-94.75a1.9265,1.9265,0,0,1,.02-3.27c11.7-7.05,23.55-5.75,35.63,4.8,19.2,16.75,28.7,39,30.42,63.68C1437.8216,1138.1964,1411.6216,1183.1265,1362.7516,1217.3665Z"/>
          <path class="cls-1" d="M1328.4717,1150.4865c-24.74,27.64-70.54,34.77-106.84,16.63-50.64-25.31-77.66-81.47-70.98-143.25,4.5-41.74,22.65-76.99,46.59-110.1,15.4-21.3,30.95-42.49,46.4-63.76h52.19q-11.13,22.11-24.38,43.28c-9.95,15.95-17.19,33.55-19.97,52.41-3.57,24.25,1.39,36.09,20.68,47.9a3.3473,3.3473,0,0,1-.7,6.05c-16.44,5.02-33.86-3.67-40.35-21.7-7.12-19.79-3.58-39.11,4.76-57.62,2.73-6.06,5.66-12.03,8.57-18a3.3465,3.3465,0,0,0-5.64-3.53c-37.4,47.35-64.5,98.42-51.27,164.55,9.04,45.18,37.57,76.18,75.86,80.38,30.04,3.3,52.95-12.27,55.87-37.38,1.01-8.69-2.38-15.99-5.85-23.46a3.3514,3.3514,0,0,1,2.86-4.75c6.16-.36,9.89,4.13,13.53,7.97C1346.4417,1103.6465,1345.7316,1131.1964,1328.4717,1150.4865Z"/>
          <path class="cls-1" d="M1158.7017,850.0065c-28.98,18.9-73.47,45.09-105.44,51.48-2.41.48,22.35-37.66,38.09-45.31q5.8952-2.88,11.57-6.17Z"/>
          <path class="cls-1" d="M1187.6915,540.4606c18.0235-19.2823,21.2571-42.7946,20.3372-67.3444-.8482-22.6335-3.585-45.2471-3.4443-67.8567.336-54.03,28.22-91.9889,71.8636-120.9689,39.7484-26.3937,81.69-49.1815,121.52-75.36,24.9408-16.3921,44.2479-38.2883,58.79-64.592,8.2478-14.9192,17.41-29.2464,20.3425-47.0767,5.5221,12.3266,5.5141,24.7972,4.6737,37.3034-1.7336,25.8-13.466,46.3463-32.5358,63.5122-27.1907,24.4758-54.1738,48.9849-84.4677,69.87-30.6581,21.1365-55.7667,48.6778-81.854,75.2095-29.4876,29.99-38.0337,66.8546-43.1961,105.9376-2.8473,21.5574-6.3452,43.0188-17.1891,62.3644C1214.7738,525.2987,1204.44,536.3679,1187.6915,540.4606Z"/>
          <path class="cls-2" d="M1600.29,0c5.7251,19.7249,2.4576,38.098-1.3058,56.35-6.26,30.3605-14.2762,60.494-32.3573,86.0362-29.7527,42.0311-62.1611,81.6207-106.3564,110.21-26.2538,16.9833-50.2106,37.4876-76.1858,54.9415-20.8247,13.993-40.4878,29.0252-57.8044,47.5838.6133-9.93,6.2462-17.3069,11.5288-24.6186,24.99-34.5873,57.7434-61.78,88.4825-90.7074,48.1982-45.3568,92.4975-93.4486,128.8495-149.2586,17.2773-26.525,31.28-53.6544,41.1035-83.3782C1597.088,4.6057,1598.9178,2.3786,1600.29,0Z"/>
          <path class="cls-2" d="M1281.5156,475.2483c7.4115-25.491,19.4993-47.5156,34.2646-68.1915,28.1627-39.4366,66.22-68.8011,104.9752-96.1,53.57-37.7348,101.7806-80.6459,142.7749-131.3881,22.5687-27.9352,36.9524-60.7846,46.9405-95.3556,1.58-5.4665,2.7931-11.0389,4.1564-16.4861,5.4369.2314,3.93,4.069,4.0587,6.3649,3.5352,63.19-18.0966,116.4643-61.7364,162.0689-23.0869,24.1265-46.6936,47.575-73.8932,66.759-38.083,26.86-77.5529,51.7462-115.8975,78.2464a252.8459,252.8459,0,0,0-75.7945,82.2986c-2.1562,3.7273-4.3305,7.4446-6.5673,11.1235C1284.6289,474.8645,1283.89,474.7937,1281.5156,475.2483Z"/>
          <path class="cls-2" d="M1273.2118,545.1807c13.7918-41.1754,43.0136-68.7578,78.8707-89.1q55.248-31.3434,110.9462-61.9414c27.6281-15.1771,52.4921-33.9094,77.564-52.6521,33.9021-25.3438,63.4469-54.42,84.1132-96.1759,3.5208,12.1237.8853,20.3722-1.06,28.0806-10.4811,41.5281-31.5166,76.0833-67.4884,100.77-13.1,8.9908-25.1194,19.5445-38.0676,28.7734-44.3812,31.6332-94.8,51.4317-144.8845,71.2756-37.1442,14.7166-70.713,32.7537-93.3162,66.98C1278.3833,543.47,1277.01,546.4277,1273.2118,545.1807Z"/>
          <path class="cls-2" d="M1630.7387,133.25c6.0309,30.3429,3.067,58.7606-8.5168,86.5287-19.4047,46.5166-53.888,79.6526-93.35,109.4173-37.9789,28.6461-80.6045,48.8024-121.5958,72.0161-23.3,13.1946-48.5073,22.8818-70.7045,38.5769a106.69,106.69,0,0,1,31.0887-36.28c45.0025-33.7264,90.833-66.3457,135.9812-99.8809,25.1567-18.6858,46.748-41.4385,67.8929-64.3729,25.1767-27.3071,42.6669-59.3225,53.0831-95.1069C1625.6332,140.66,1625.8351,136.5651,1630.7387,133.25Z"/>
          <path class="cls-1" d="M1106.0217,602.4465h-46.73c-27.3-34.33-53.01-44.4-99.8-38.99a1.9573,1.9573,0,0,1-1.68-3.26c8.67-9.34,19.73-11.62,30.32-14.77a129.7254,129.7254,0,0,1,13.67-3.2c2.56-.35,4.72-.5,6.24-.57l5.55.25c2.01.58,4.9,1.43,8.34,2.54,6.03,1.94,33.1,9.58,50.6,22.27A133.0967,133.0967,0,0,1,1106.0217,602.4465Z"/>
          <path class="cls-2" d="M1315.4113,545.0143a1.3587,1.3587,0,0,1-1.5753-2.1466c14.863-16.8851,33.9874-27.45,54.7532-35.5651,45.809-17.901,90.9293-37.2385,132.3546-64.1655,28.84-18.7464,53.039-42.7117,76.1169-68.048a1.3626,1.3626,0,0,1,2.3593.7477c1.8513,13.5009-5.2465,37.1919-15.3088,48.676-25.3385,28.9187-53.9991,53.6546-90.0714,68.33a637.5788,637.5788,0,0,1-96.1606,31.0339A316.3858,316.3858,0,0,0,1315.4113,545.0143Z"/>
          <path class="cls-1" d="M1137.2688,430.4248c-2.1457,22.52-23.2057,42.2477-48.96,46.112-18.09,2.7143-36.4612,3.5755-54.7171,5.1468-16.0428,1.3806-31.3934,4.1779-44.2919,15.2187-4.4877,3.8414-10.5044,7.7336-16.704,1.9572-6.2916-5.8621-4.5086-12.5721-.4673-18.34,13.5741-19.3724,34.2126-25.5442,56.17-27.9471,15.3176-1.6765,30.799-2.0666,46.2223-2.518C1096.64,449.407,1117.4272,444.6175,1137.2688,430.4248Z"/>
          <path class="cls-1" d="M1114.88,900.03c-38.19,83.6345-41.3789,101.0221-31.4862,169.2986a3.42,3.42,0,0,1-5.2871,3.3357c-5.9464-4.0249-9.0253-10.462-11.567-16.6879-19.6112-48.0373-14.0837-95.0522,6.9108-141.2133,2.1144-4.6492,5.5616-7.2376,10.5364-8.9592,8.51-2.9453,16.8377-6.4172,26.5013-10.3529A3.414,3.414,0,0,1,1114.88,900.03Z"/>
          <path class="cls-2" d="M997.1143,531.64a1.86,1.86,0,0,1-1.1681,2.89c-9.3054,1.82-18.6969,3.3206-27.7942,5.8872-15.2663,4.2906-25.5144,14.6394-32.1243,28.885a1.8648,1.8648,0,0,1-3.1923.2984c-11.8875-16.2621-10.7721-34.9247,3.1939-50.1515,5.1426-5.6141,11.6261-10.0641,17.7264-14.7352,2.5639-1.96,7.014-5.2162,8.9442-2.1071C971.0389,516.06,988.1611,519.1971,997.1143,531.64Z"/>
          <path class="cls-1" d="M1113.3907,504.8811c2.28-7.6707,10.1328-7.2855,15.1647-11.9828-6.4528-7.0311-17.7222-3.6967-23.9026-11.0153,6.4291-6.5781,12.9143-7.251,20.9521-3.0647,18.4168,9.5919,37.6987,14.7531,58.371,7.6637,6.2907-2.1573,7.48.41,7.3669,6.1331-.3317,16.7424-14.5825,28.1885-35.1583,27.9607C1140.0055,520.3967,1127.3767,510.9989,1113.3907,504.8811Z"/>
          <path class="cls-1" d="M1211.1233,970.9409a2.4777,2.4777,0,0,1,4.6659,1.1592c.0159,8.2655.0376,15.339-.0346,22.4117-.07,6.8871,1.01,13.14,5.7753,18.7224,4.7285,5.5383,6.0744,12.1663,1.3339,18.492-3.1407,4.19-7.9477,5.5334-12.9394,4.0387-7.5208-2.2521-9.9075-8.4968-10.728-15.5136C1197.7181,1007.6057,1202.5791,987.2023,1211.1233,970.9409Z"/>
          <path class="cls-1" d="M1150.231,885.22a408.7984,408.7984,0,0,0-36.786,63.5083,1.2594,1.2594,0,0,1-2.3558-.1976c-5.46-19.408,14.7878-54.3132,37.7347-65.0036A1.1372,1.1372,0,0,1,1150.231,885.22Z"/>
          <path class="cls-2" d="M1035.8851,492.551c-9.158,9.2494-15.185,17.3127-26.9181,10.95-2.2835-1.2383-5.5695-3.1045-4.0611-6.3545.7555-1.6278,3.7336-2.8984,5.8286-3.1077C1018.0123,493.312,1025.3434,493.1206,1035.8851,492.551Z"/>
          <path class="cls-2" d="M1288.7529,581.1948a1.3606,1.3606,0,0,1-1.1983-2.4237,344.0264,344.0264,0,0,1,44.0688-23.6523c48.6506-21.7027,76.1988-20.26,116.9681-35.3241,21.73-8.0292,52.8243-22.82,87.0831-52.3824a1.3622,1.3622,0,0,1,2.2225,1.3345,78.6194,78.6194,0,0,1-9.2327,23.1137c-8.1173,13.5015-19.1052,22.2462-29.5959,28.5925-38.7072,23.4162-96.5448,29.8519-149.4833,42.6379A614.3812,614.3812,0,0,0,1288.7529,581.1948Z"/>
          <path class="cls-2" d="M1276.243,600.8232c-1.1161.1961-1.82-1.086-.9171-1.66,13.7095-8.7144,29.83-12.6023,46.8769-14.62,37.6053-4.4519,74.8773-9.9563,110.3463-21.03,24.6931-7.71,46.5341-19.5837,67.7011-32.5362a1.1217,1.1217,0,0,1,1.7093.8666c-.4171,9.1556-9.092,23.5737-18.3806,29.5079-23.39,14.9436-48.7616,26.6127-78.4526,30.4987a562.4129,562.4129,0,0,1-78.0485,5.051A278.0444,278.0444,0,0,0,1276.243,600.8232Z"/>
        </g>
        <g>
          <path class="cls-1" d="M7.1259,596.6381c6.9943-2.7849,8.5828-8.1107,8.8658-14.5117,1.5477-34.9886.6993-69.9879.8068-104.9845.03-9.6427-6.6014-12.4853-16.7985-16.2537,22.9462,0,42.35-.8161,61.6431.2975,12.1326.7,22.7953,6.6533,26.7078,19.3459,3.9758,12.8978-1.0465,23.584-10.5731,32.4883-1.7061,1.5947-3.1474,3.4728-4.9792,5.52,6.0446,3.4626,11.9762,6.0929,17.0324,9.8891,22.8712,17.172,20.7341,48.5719-4.0171,63.215-11.8785,7.0276-24.8231,9.3231-38.3131,8.26C34.3272,598.8651,21.2094,597.1214,7.1259,596.6381ZM45.2418,524.79c-7.7713-1.6624-10.34,2.3891-10.0319,10.7039.4453,12.035-.0119,24.1035-.0966,36.1576-.0475,6.75,1.2353,13.2534,7.6636,16.5963,10.3448,5.3793,21.1111,4.7544,31.2009-.7179,9.3808-5.0882,13.0515-13.6965,12.658-24.2131C85.8551,542.4506,67.8955,525.3013,45.2418,524.79Zm-9.7645-32.3829q0,8.4167.0016,16.8333c.0039,3.8939.8435,6.6755,5.5489,7.7475,12.9659,2.954,24.9863-1.4255,28.9919-11.16,4.8658-11.8246.23-27.9918-10.1469-34.2238-6.4229-3.8571-13.8577-5.5831-20.7448-2.6894-6.7227,2.8247-2.7152,9.9275-3.58,15.0891C35.0905,486.7325,35.4669,489.6012,35.4773,492.4068Z"/>
          <path class="cls-1" d="M180.5811,555.2984c0,6.9057-.0446,13.8118.0128,20.717.055,6.6159,2.6436,10.278,9.8344,7.7412,2.438-.86,4.649-1.4144,5.5589,1.6208.6975,2.3265-1.2291,3.5745-3.0168,4.4438-4.1363,2.0109-8.3932,3.7769-12.5047,5.835-5.0577,2.5317-9.4822,1.2118-11.8768-3.329-3.6153-6.8553-7.4042-5.362-12.3173-1.8443a51.4271,51.4271,0,0,1-9.5953,5.011c-12.12,5.2453-22.9574,1.3695-27.8765-9.8273-5.4355-12.3721-1.4285-22.8493,10.6975-28.5648a125.0679,125.0679,0,0,1,26.96-9.3092c5.867-1.2669,9.2469-3.7345,8.6476-10.6287-.8319-9.5666-6.0973-16.7343-15.0442-18.1061-9.5313-1.4613-16.0463,1.8026-17.6924,12.206-.6546,4.1371-3.66,6.022-7.7592,6.182-2.45.0956-4.8043-.3718-5.6148-2.9815-1.0941-3.5226.4792-6.5775,2.89-8.9246,8.1085-7.894,17.4809-14.0713,28.706-16.194a25.2646,25.2646,0,0,1,29.7495,22.4926c.7217,7.7658.1763,15.6354.1763,23.46Zm-15.754,7.49c-2.5311-2.3111,4.9349-10.8285-4.9969-9.4439a51.1483,51.1483,0,0,0-20.2171,7.1713c-6.0345,3.8179-9.7035,9.2679-6.1079,16.5352,3.4623,6.9978,9.361,9.6818,17.1737,7.4716C161.727,581.3975,164.4224,577.4529,164.8271,562.7888Z"/>
          <path class="cls-1" d="M204.8142,592.0181c11.5186-7.9031,11.4922-7.9028,11.3822-23.4266-.0744-10.5153-.2019-21.0334-.0445-31.5464.1259-8.4167,1.6033-17.4219-14.6318-16.3628,10.1958-7.4243,18.9708-8.7712,26.8781-11.9786,2.8639-1.1617,4.2593.767,4.4507,3.5128.2026,2.9029.2794,5.8148.5144,11.0066,6.0735-5.1147,10.7146-9.3773,15.7238-13.1513,6.1207-4.6113,11.98-2.6189,16.7721,2.2208,4.4467,4.4908,2.4941,8.8667-1.4323,12.8815-3.1728,3.2443-6.1265,2.4037-9.75.6825-11.57-5.4946-22.3123,1.1-22.6844,14.2562-.3433,12.1421.4522,24.3128.3038,36.4654-.1028,8.4156,2.8947,13.1918,11.9413,12.956,2.13-.0556,5.3861-.2372,5.19,2.9371-.1878,3.04-3.2288,2.4764-5.5048,2.4728q-19.4511-.0315-38.9021-.01Q204.9172,593.4761,204.8142,592.0181Z"/>
        </g>
        <g>
          <path class="cls-1" d="M478.6049,828.9209c50.6734,29.5984,99.35,58.181,160.3233,40.8519a.3736.3736,0,0,1,.3576.6326c-17.3359,15.7511-36.9733,23.2156-59.0695,24.1471A149.1543,149.1543,0,0,1,496.91,873.9342c-2.6815-1.5713-5.365-3.1434-7.9893-4.8071-26.5983-16.8608-53.1312-29.0472-86.9566-30.12-43.1773-1.3691-78.6554-24.3791-94.3472-67.1151-15.903-43.3107-8.2387-84.6762,24.0562-118.2751,27.6254-28.741,64.2192-36.8073,102.8451-33.4006,54.6016,4.816,90.2427,32.643,101.3319,76.99,12.3832,49.5211-6.5292,96.32-51.1339,126.5685-1.5626,1.06-3.0489,2.2316-6.1368,4.5192A.3776.3776,0,0,0,478.6049,828.9209ZM337.9658,729.4926c-1.3933,26.197,13.3784,54.52,39.6071,77.4884,41.54,36.3755,108.0259,14.8352,119.71-38.9276a140.36,140.36,0,0,0-5.6586-79.4733c-11.6959-31.8216-41.5827-53.2707-74.4072-54.0529C370.2242,633.4073,338.0043,668.1853,337.9658,729.4926Z"/>
          <path class="cls-1" d="M726.7162,624.843c22.4071-4.6071,44.782-2.9881,68.4572-1.3936a.3706.3706,0,0,1,.0462.734c-22.8,4.1893-18.4915,22.0094-18.5451,37.1743-.11,31.0636.4145,62.1334-.0355,93.19-.6113,42.1866-42.65,87.4156-92.6349,85.55-56.5712-2.1118-90.4164-31.4026-92.0852-85.2762-.9136-29.49-.12-59.03-.4451-88.5436-.1883-17.07,5.9689-38.28-26.0391-36.7778a.3713.3713,0,0,1-.322-.5911L568.32,624.7a.3719.3719,0,0,1,.298-.1464l75.4657.4823a.3705.3705,0,0,1,.09.7294c-23.6247,5.8668-17.6041,26.2815-17.688,42.8874-.1648,32.6022-1.0817,65.2456,2.3614,97.7841,3.6558,34.5495,23.6886,54.2265,56.9844,55.5728,33.2714,1.3449,54.9753-15.1378,59.3993-50.2444,5.4408-43.176,2.5485-86.845,2.312-130.3143-.08-14.7356-13.5138-10.1094-20.9947-15.9376A.3858.3858,0,0,1,726.7162,624.843Z"/>
          <path class="cls-1" d="M292.6559,836.74l-75.8806-.4849a.37.37,0,0,1-.239-.6459c12.2355-11.4219,5.036-21.1934,1.1276-30.387-5.7758-13.5867-5.2443-33.0788-17.8154-39.6113-11.4837-5.9673-28.2889-1.9158-42.7479-1.8823-25.8717.06-25.8558.19-34.1216,24.0477-2.5394,7.3295-5.2683,14.5938-7.77,21.9358-3.4967,10.2628-7.4282,20.7934,9.4043,22.6921,2.28.2572,4.2944,1.7565,3.713,3.8885-.4065,1.49-2.8771,3.5334-4.3252,3.4554-20.168-1.0829-40.3052-1.6563-60.4253.8159-2.1733.2671-4.2078-.7476-4.5705-3.1667-.4851-3.233,1.8219-4.9589,4.4581-5.0714,20.4578-.87,25.2768-17.0649,31.2545-31.8846q22.6282-56.1,44.8215-112.3754c7.7024-19.624,20.4136-36.8563,26.7345-57.1248,1.3217-4.2381,2.0208-10.2317,7.8681-10.2075,5.5478.0229,6.7106,5.804,8.5,9.9455,15.3852,35.6089,31.2721,71.019,45.76,106.9917,10.6271,26.386,24.6009,51.0194,36.7527,76.586,6.0141,12.6531,17.7469,14.699,27.724,21.797A.3806.3806,0,0,1,292.6559,836.74ZM170.0933,680.6943a.3735.3735,0,0,0-.685-.0211c-9.3237,19.5748-17.894,37.8406-26.429,56.12-3.8849,8.3205-.7949,11.64,8.481,11.27,11.6844-.4666,23.3837-.0042,35.0774.0175,5.6158.01,8.7933-1.6729,6.3809-8.01C185.3745,720.254,177.7121,700.4825,170.0933,680.6943Z"/>
          <path class="cls-1" d="M1653.1965,824.9517h-70.9137c-.3022.4873-.4631.1425-.2856-.102,11.2461-15.4842-.2862-27.6921-4.7389-40.3649-10.6113-30.2-11.2727-30.499-42.3394-30.34-1.6431.0084-4.3369.05-5.9749.1805-11.3325.9049-25.0156-4.7812-32.9634,3.6653-13.5821,14.4342-18.3687,34.4164-21.7351,53.6954-2.2242,12.738,12.7233,6.1211,18.2218,14.1564a.3794.3794,0,0,1-.32.5829l-70.4082-.45c.0553-.6085.0464-2.3219.2367-2.3444,21.1057-2.4875,29.3955-17.5244,36.57-35.1186,22.1936-54.4268,45.1385-108.5486,68.0829-162.6655,2.2232-5.2434,2.6439-13.8959,10.6771-13.3055,6.3646.4674,7.3638,8.0071,9.5852,13.0454,13.1486,29.8189,24.8316,60.3643,39.4837,89.4162,12.7857,25.351,23.9258,51.3329,35.4562,77.1984,6.4054,14.3687,14.75,27.1039,33.9973,28.3853a.3684.3684,0,0,1,.3027.5474q-1.3046,2.2861-2.609,4.5726C1653.4551,825.8233,1653.3308,825.895,1653.1965,824.9517ZM1528.4814,670.1428c-8.2425,22.1409-16.4863,44.2859-25.078,67.3652a.375.375,0,0,0,.3467.5064l54.6432.3492a.3755.3755,0,0,0,.3513-.508l-25.372-67.7179Z"/>
          <path class="cls-1" d="M1141.9675,830.1859a.368.368,0,0,1,.0345-.6992c18.0072-5.3885,19.1642-19.67,19.1475-34.584q-.0736-66.0355-.2647-132.0708c-.08-29.9766-.108-30.1269-23.9092-40.59a.3936.3936,0,0,1-.1958-.5187c2.3-4.7188,6.8211-3.2777,10.5575-3.26,39.3416.1874,78.6994,1.4093,117.9805-1.862,5.6979-.4743,9.149.6283,8.3866,7.305-1.1671,10.2228-2.1844,20.463-4.5012,31.798a.3756.3756,0,0,1-.7142.0638c-13.682-32.9809-41.901-15.1987-63.5073-19.2706-5.4528-1.0279-6.782,3.3-6.7942,7.9377-.05,19.1635-.0633,38.3274-.2319,57.49-.0571,6.4731,2.6551,9.6928,9.3037,9.0738,18.253-1.699,37.3683,3.6535,54.5606-6.7946,4.3641-2.652,7.4866-.9552,7.0083,3.9217-1.2507,12.75.1552,25.8317-4.5906,43.1657a.3747.3747,0,0,1-.7228-.012c-9.4769-36.1483-35.8937-20.9944-55.6962-24.0077-8.5909-1.3072-10.1628,4.98-9.0583,14.1374,1.9044,15.7887,2.54,31.732.8318,47.5431-1.5338,14.195,3.6742,22.4665,16.3419,23.062a386.8644,386.8644,0,0,0,38.7883.27c9.8437-.5272,18.14-4.6274,20.1292-15.9275.656-3.7255,1.667-7.5447,6.7419-6.2229,4.9936,1.3,3.5092,5.6761,3.42,9.0275-.56,21.1406-10.8831,31.7741-31.4683,32.04-35.7.46-71.4067-3.4257-107.1143.1448C1144.9963,831.49,1143.4742,830.76,1141.9675,830.1859Z"/>
          <path class="cls-1" d="M1327.1273,825.92a.3673.3673,0,0,1-.1006-.7194c16.0431-5.1773,17.9419-17.7829,17.8683-32.1834-.251-49.1364-.5574-98.2781-.0294-147.409.177-16.4551-8.2612-22.4732-23.8639-22.7051a.3706.3706,0,0,1-.3539-.4755l1.0833-3.5057a.3716.3716,0,0,1,.3575-.2619l80.9155.517c-.4844,1.1279-.648,1.9868-.8928,2.0106-24.2215,2.3549-23.904,19.317-23.5446,37.6236.8021,40.8506.3316,81.7245.8577,122.5829.407,31.5755.72,32.1758,26.9629,44.3183a.373.373,0,0,1-.1493.7131Z"/>
          <path class="cls-1" d="M1108.5978,787.878a.3891.3891,0,0,1,.7156.1016c3.2379,15.3118.8561,26.801-3.8574,37.9716-2.3027,5.4573-7.172,7.0472-12.7608,6.998q-64.4829-.5661-128.9648-1.1809c-.6962-.0073-1.3819-1.0243-3.6268-3.0024a.3738.3738,0,0,1,.1665-.6441c30.9057-7.2049,22.4292-31.7751,22.9141-51.7042.9329-38.3328.4744-76.7011.4687-115.0545-.0041-28.43-.0863-29.0934-24.51-39.0392a.372.372,0,0,1,.1395-.7171l79.7475.51c-.1633.7159-.3453,2.4578-.5934,2.4674-20.2179.7736-21.1531,14.2337-20.8715,29.8785.7927,44.0418.5985,88.1005,1.2444,132.1461.3179,21.6779,6.3137,27.3345,28.0034,28.3664,5.6884.2708,11.4035.2455,17.0983.08C1093.5988,814.1924,1093.9268,814.1529,1108.5978,787.878Z"/>
          <path class="cls-1" d="M908.3433,623.57a.37.37,0,0,1,.0654.7333c-21.7365,4.6419-17.7313,23.2936-17.7164,39.3837.0387,41.9538.15,83.91.6171,125.8605.3339,29.9748.6082,30.27,25.9462,39.5119a.3819.3819,0,0,1,.0614.6972c-9.6383,4.7042-67.6,5.9161-84.3679.8315a.3688.3688,0,0,1,.0524-.7133c21.6756-4.6284,19.4373-20.9014,19.4726-35.7607.1056-44.5445-.0825-89.0895-.0592-133.6345.0138-26.4878.09-27.1244-20.8123-36.6867a.3725.3725,0,0,1,.1509-.7123Z"/>
        </g>
        <g>
          <path class="cls-3" d="M468.7428,946.3991c-.7932-.2625-.7436,1.0267-.91,1.2249C469.25,947.6085,468.7714,946.072,468.7428,946.3991Z"/>
          <polygon class="cls-3" points="482.723 946.137 482.389 946.596 484.604 945.735 482.723 946.137"/>
          <path class="cls-3" d="M495.2781,948.5326c-.7955-2.33-4.6134-.52-6.7115-1.6906l-.2778-.552-1.3294,1.505C489.7312,948.0406,493.4728,947.5824,495.2781,948.5326Z"/>
          <path class="cls-3" d="M501.1429,954.352c-.2648-.896,1.5794-.4291-1.5177-.55a2.2564,2.2564,0,0,1,.2451.2619A9.6711,9.6711,0,0,1,501.1429,954.352Z"/>
          <path class="cls-3" d="M499.87,954.0634c-1.3361-.1914.7413.85,0,0Z"/>
          <path class="cls-3" d="M506.0769,954.7372l-1.88.4146c.2755.5588,1.8132.9455,1.1711,1.1944C507.2376,956.2549,506.954,955.7093,506.0769,954.7372Z"/>
          <path class="cls-3" d="M508.0131,953.4858l-.9624.1533C507.173,953.87,507.4,953.9826,508.0131,953.4858Z"/>
          <path class="cls-3" d="M505.011,953.9544l2.04-.3153c-.1923-.3834-.0955-1.0714-.9251.0829C506.3959,953.1231,505.9059,953.6663,505.011,953.9544Z"/>
          <path class="cls-3" d="M503.9835,953.4294c-.8957-.6425-2.106-1.1709-.2235-1.5688C500.3721,951.52,500.5921,953.0927,503.9835,953.4294Z"/>
          <path class="cls-3" d="M496.3227,946.4759l-1.19-.8651-1.2608.4945C494.5007,945.8617,496.2814,947.151,496.3227,946.4759Z"/>
          <path class="cls-3" d="M516.7891,957.7148c.1882-.4306-.3785-1.2979-.4079-1.8954l-1.3836.2923C515.6078,956.5338,516.8177,957.035,516.7891,957.7148Z"/>
          <path class="cls-3" d="M516.3812,955.8194l2.0688-.436C516.7391,954.9947,516.359,955.3065,516.3812,955.8194Z"/>
          <polygon class="cls-3" points="508.745 951.2 505.281 952.262 509.361 951.284 508.745 951.2"/>
          <polygon class="cls-3" points="524.171 959.049 522.894 959.898 525.12 958.665 524.171 959.049"/>
          <path class="cls-3" d="M529.1052,959.7148c-.9588.7211.8658,1.65-.0831,2.0312a8.4233,8.4233,0,0,0,3.7585-.9549A4.8621,4.8621,0,0,1,529.1052,959.7148Z"/>
          <path class="cls-3" d="M534.6626,960.12a10.1685,10.1685,0,0,0-1.882.6708A5.2589,5.2589,0,0,0,534.6626,960.12Z"/>
          <path class="cls-3" d="M521.7045,956.175a2.2568,2.2568,0,0,0,1.3,1.5449l-.5419-1.3946Z"/>
          <path class="cls-3" d="M522.4427,956.281l.02.0443,1.6307.355Z"/>
          <path class="cls-3" d="M521.5137,956.1368l.1908.0382C521.6531,956.0367,521.6158,955.99,521.5137,956.1368Z"/>
          <path class="cls-3" d="M513.6053,953.2167c1.261-.51,3.7584-.8562,1.6607-2.3292C514.2992,951.6114,515.5015,952.45,513.6053,953.2167Z"/>
          <path class="cls-3" d="M520.8443,954.3947l-2.0017-.6435c-.018.34.267.8913-.3566,1.144Z"/>
          <polygon class="cls-3" points="521.919 954.166 520.844 954.395 521.587 954.632 521.919 954.166"/>
          <path class="cls-3" d="M531.3424,958.3282a6.3292,6.3292,0,0,1,3.0693-.1739,17.2064,17.2064,0,0,0-3.4784-.9916C530.7034,957.5309,530.0755,958.156,531.3424,958.3282Z"/>
          <path class="cls-3" d="M527.0361,957.2223c.0662-.019.1471-.0184.2095-.0381C527.1427,957.0559,527.0512,957.0057,527.0361,957.2223Z"/>
          <path class="cls-3" d="M545.2112,959.9682l-.1361-.2575-.0763.2133Z"/>
          <path class="cls-3" d="M530.7762,956.8922a1.98,1.98,0,0,0-1.99.1221,12.193,12.193,0,0,1,2.1473.1484C531.0371,956.9946,531.0708,956.8786,530.7762,956.8922Z"/>
          <path class="cls-3" d="M537.7736,960.05a10.532,10.532,0,0,0-1.4139-.96C536.7423,959.568,537.5561,960.35,537.7736,960.05Z"/>
          <path class="cls-3" d="M527.4834,957.5858a1.14,1.14,0,0,1-.1418.0336C527.5852,957.938,527.5715,957.8011,527.4834,957.5858Z"/>
          <path class="cls-3" d="M527.4834,957.5858a5.0149,5.0149,0,0,0,1.3026-.5715,7.1131,7.1131,0,0,0-1.54.17A1.5837,1.5837,0,0,1,527.4834,957.5858Z"/>
          <path class="cls-3" d="M549.8,952.3589c-.3439,1.1486-2.842,1.8685-4.64.2971-2.1147.57-1.4609,4.6284-.0854,7.0547.1444-.5009.2221-.9737,2.3679-1.3485-.6091-.7507-4.2656-2.2041-2.378-2.9968,2.788-.1817,2.1362.7608,3.3445,1.5856-.8748-1.6346,3.7653-1.591,3.5234-3.8322l-2.4775.3886C549.4655,953.1649,550.4054,952.7655,549.8,952.3589Z"/>
          <path class="cls-3" d="M541.2185,958.98l-.8589.001a7.9489,7.9489,0,0,1,2.6317,2.063c1.4882-.3557,1.848-.7448,2.0075-1.12l-4.0947-.8184Z"/>
          <path class="cls-3" d="M536.61,958.338c.8652-1.1623,2.9584-1.36,1.9609-2.9514-2.4616-.3343-1.8923.7691-3.4479,1.0695,4.0048.366-1.2544.5138,1.4809,1.73a10.9929,10.9929,0,0,1-2.1922-.0316,15.9763,15.9763,0,0,1,1.948.9356l-.0777-.0934-.0187-.0027.0067-.0165c-.1437-.1892-.1836-.2966-.0066-.1722a.2559.2559,0,0,1,.0868-.0118,1.5318,1.5318,0,0,1,.2586-.4482c1.1013.4611.1254.36-.2586.4482a1.3577,1.3577,0,0,0-.08.184l.012.0192,4.0776-.0154A14.2147,14.2147,0,0,0,536.61,958.338Z"/>
          <path class="cls-3" d="M517.8568,948.5147a.374.374,0,0,1,.0743.3176C518.2142,948.7193,518.33,948.6305,517.8568,948.5147Z"/>
          <path class="cls-3" d="M519.3471,949.5639a1.62,1.62,0,0,1-1.558.303c-.743-.5218.111-.6089.142-1.0346-.6217.24-2.1307.5717-.4745,1.4981l.31-.1263c1.5138.7123,3.2827,2.6549,2.9742,2.7821A8.7846,8.7846,0,0,0,519.3471,949.5639Z"/>
          <path class="cls-3" d="M528.1367,953.6435l3.4-.0552-1.4892-1.3925-.0278.6769C528.1914,952.289,528.4567,953.1739,528.1367,953.6435Z"/>
          <polygon class="cls-3" points="545.486 960.662 544.828 961.942 547.049 960.336 545.486 960.662"/>
          <polygon class="cls-3" points="549.812 961.175 549.465 962.32 550.714 961.792 549.812 961.175"/>
          <path class="cls-3" d="M794.5534,969.1642l.9783-.3215A3.65,3.65,0,0,0,794.5534,969.1642Z"/>
          <path class="cls-3" d="M787.4975,968.9767l-.1829.5827C787.647,969.2421,787.7848,969.006,787.4975,968.9767Z"/>
          <path class="cls-3" d="M655.7855,975.2508c1.31,1.2522,2.7277,3.1315,2.6935,1.7845l-.3036-1.34A3.7217,3.7217,0,0,1,655.7855,975.2508Z"/>
          <path class="cls-3" d="M729.269,973.6459l-.3933-.4151c-.3732.428-.7237.83-1.0387,1.1908Z"/>
          <path class="cls-3" d="M730.5944,968.3234l1.8242.9362A6.8677,6.8677,0,0,0,730.5944,968.3234Z"/>
          <path class="cls-3" d="M833.0452,967.5582l1.1022-1.3505C832.3746,966.2552,833.1705,966.9047,833.0452,967.5582Z"/>
          <path class="cls-3" d="M593.9632,967.3024a9.8852,9.8852,0,0,0,2.9493,1.2065C595.5375,967.5621,594.5022,966.2849,593.9632,967.3024Z"/>
          <path class="cls-3" d="M791.594,982.933c.6064-.2267.8673-.4879.8532-.7783C791.8238,982.3673,791.4694,982.6119,791.594,982.933Z"/>
          <path class="cls-3" d="M600.4524,969c-.1983-.16-.4016-.2534-.6064-.3938a9.0035,9.0035,0,0,1-2.9335-.0971A3.1918,3.1918,0,0,0,600.4524,969Z"/>
          <path class="cls-3" d="M971.2451,953.8309a2.57,2.57,0,0,1,.34.0858C971.5762,953.7371,971.4383,953.7582,971.2451,953.8309Z"/>
          <path class="cls-3" d="M1014.2082,955.4959a11.2939,11.2939,0,0,1-1.5975.6584A3.8547,3.8547,0,0,0,1014.2082,955.4959Z"/>
          <path class="cls-3" d="M567.0268,964.4446c-.9253-.0583-.1663.1191,0,0Z"/>
          <path class="cls-3" d="M563.3769,958.6628a.8247.8247,0,0,0,.46-.569A1.0539,1.0539,0,0,1,563.3769,958.6628Z"/>
          <path class="cls-3" d="M610.6164,962.23l.0782.0148C610.4564,961.9584,610.4966,962.0129,610.6164,962.23Z"/>
          <path class="cls-3" d="M565.7437,963.6452a5.6732,5.6732,0,0,0,1.108.5643A6.0128,6.0128,0,0,0,565.7437,963.6452Z"/>
          <path class="cls-3" d="M565.8352,964.2823l-.7781-.2493C564.9092,964.2285,564.99,964.38,565.8352,964.2823Z"/>
          <path class="cls-3" d="M568.308,964.5739a6.25,6.25,0,0,1-1.4563-.3644c.1657.1164.23.199.1751.2351Z"/>
          <path class="cls-3" d="M898.0291,968.4546a1.7487,1.7487,0,0,1,.2072.1053C899.1026,967.9243,898.7086,968.0579,898.0291,968.4546Z"/>
          <path class="cls-3" d="M680.9428,964.1644c-.044.0093-.07.0417-.11.0508l.1305.0607Z"/>
          <path class="cls-3" d="M684.3077,963.4893c-1.54,1.49-2.3179,1.2215-3.3441.7866l.7452,3.8319Z"/>
          <path class="cls-3" d="M811.4465,968.8474,809.14,967.685c2.7744-1.9355,4.7795-1.28,2.6167-2.9141-.313,4.0764-8.93.4516-9.2646,4.5261l-1.515-.8544c.435.0443.5058-.1993.9357-.16-2.9407-1.967-2.2128,2.9189-6.0241,2.29-1.3262-.3321-2.2459-.9371-1.3353-1.4076l-2.9717.9628c-.86-.0919-.64-.7969.2161-.7063l-4.5187.2575.0355-.1188a18.73,18.73,0,0,1-2.8553,2.0033c-1.1371-.6031.5845-.4232.3-.9342l-2.5225.9483c-.9967-1.0735,1.0977-2.065,2.8206-1.8869-2.2523-4.1024-2.0961.9924-7.0791-1.46l2.3694-.4793c-1.4655-2.32-3.3223-1.5333-5.9437-3.0734.6062.7735,5.2373,3.81,2.5022,4.7329a3.4815,3.4815,0,0,0-3.2453.2568c.0263-1.45-1.4109-1.1415-3.2006-1.1194l.18-1.9153c-1.9461.4886-1.8246,1.47-2.9894,2.2956-2.1483-.2629-2.5437-1.7631-3.0061-3.0321-3.4332-.4215,2.2968,2.4626-1.796,2.6866-2.8416-.8316-4.8816-.1158-8.365.9151-1.9806-.7311.4012-1.1625-.2959-1.7351l-1.8459,1.4487c-.434-.06-.2726-.5219-.1908-.7553-1.5261.5148-.208,1.91-2.5923,2.3057-.7385,2.0786-4.6972-3.3385-7.734-1.095-.6915-.5818.4078-1.1565.2259-1.91-4.0855,1.3633-3.49.9631-6.8994,2.9077l-2.7328-1.4046c1.9776,1.5456-.7517,3.11-3.15,4.3863a19.4173,19.4173,0,0,0,1.6859,1.6866l-3.7578.8342c-.4268-.3441-.014-.9747.64-1.7451-.2613.1441-.51.2912-.7049.4228-1.2755-.8024-.5223-1.8545.487-2.8654.426.4008.8474.827,1.2566,1.2518.9816-1.1161,1.9088-2.3605,1.7859-3.4929a2.75,2.75,0,0,1-1.2376.4552c.2567-.3032.4255-.5782.327-.7756-.1129-.2075-.522.1964-1.1538.6548l-.7059-2.181-.2549.8374-4.7212-1.6739c-3.5745,1.9054-6.7872,4.8582-12.33,5.3516,1.4715-1.4688.4762-2.5348.6844-4.3835,1.3505,2.0682,4.29-.5349,7.09.0627-1.4626-.31-1.077-1.1737-.681-1.4525l-5.1693,1.4288c.2221-1.5094-.99-1.2124-2.2618-1.9328.7781,3.0675-3.9085,1.7308-6.0336,2.5038-.05-1.0131.521-2.0073,3.0071-1.5865-2.59-2.4515-3.8419,3.2656-6.41,1.1579.6143.019.9322.1957,1.2142-.3-1.5019.8158-4.9363-.2249-4.0439-1.02l.6113.0333c-4.0279-.7143-12.344-1.1133-13.1779,1.3742a18.7223,18.7223,0,0,1,1.0934-3.5087l-8.0251,7.909c.8392-2.1259-1.1268-7.5376,2.35-8.4765a5.5721,5.5721,0,0,0-4.2038-.2715c.6287.3688,1.3473,3.2991.427,3.42-2.2449-2.6474-1.5965-1.4511-4.4436-3.791.9432.5456-.4862,3.8952-2.037,3.6138.2935-.486.2-3.3889.8043-3.685l-4.2118,2.9462c1.03-.5016.4536-2.8272-.318-3.87.3363.7023-3.3453-.4146-4.4122-.1918l1.564.9536c-4.3249-.9721-4.815,4.26-9.154,3.6221.6018-.6359,1.7534-4.1274-.41-4.7822-1.1927,1.6105-5.3819,7.7866-9.3995,8.6993l-.6309-1.0608-3.0909.8051a67.3092,67.3092,0,0,1,10.9576-9.0963c-1.5533-.9509-.33-1.2081-2.7919-1.3768-.7638-1.0124,1.49-1.2541,2.216-1.2324l-5.637-1.1977c.03,2.0285-4.591,1.555-4.5639,3.2337l6.4358-1.4138c.0336,2.0141-4.2279,5.34-8.24,4.4954-.9369-.9248,1.1815-3.472,1.1734-4.1513-.603.6247-3.9881.8463-4.3021.311l1.8391-.8605c-2.1585-1.03-3.9839,2.203-6.46-.0411-.9183-.2436-2.473-2.9205-2.7775-1.7565,1.2418,2.4721.6917,9.5765-.5359,11.1676-.3113-.1954-4.6564-2.789-5.5828-4.05-1.3164-1.98,2.84-3.9842,1.72-5.683-.1239.54-1.0568,1.11-1.438,1.2841-.9223-.588.6168-1.6442-1.5438-1.6584-.61,1.9822-4.3115-.705-1.2227,1.59-2.1584.3231-2.1627-.6921-4.622-.9026.6125,1.4069-2.7732,4.1874-4.9453,4.51.1908-.5-.1914-1.23-.3786-1.5652-4.2519-.7556-6.4181-2.0155-10.3975-2.5839-.3-.5427-2.1386-1.4056-1.2013-2.1629a3.996,3.996,0,0,1-2.476.77c-2.132-2.0839,2.7733.1107,1.2542-2.25-.3166,1.1553-3.3971,1.1827-5.2483,1.6718.2826,1.8937,3.9925.9154,5.8429.4253-.3354,2.5091-3.7489,4.7076-8.0859,5.2831-3.404.1588-1.2072-1.8205-1.8332-1.5458-6.1582-1.308-5.9374,3.633-10.8485,1.0994-1.8169-1.8813.3762-3.1848.0911-4.4,2.7853-.2269,3.992,1.5927,5.8306,1.7843l-2.141-1.0709a4.73,4.73,0,0,1,3.7073.0373c-.7553-.8364-3.37-1.272-6.3717-1.748a37.643,37.643,0,0,1-8.67-2.1039c-.93.3991-2.4821.7248-1.8854,1.4741l1.5478.015c1.1977,1.5032-3.1213,1.3319-1.2949,2.2325-2.17.586-4.6711,1.65-7.4232.4738l-.255-1.9014c-.0219.5408,1.7032,1.3741,2.5934.9472-1.32.6193-4.0045-3.1467-5.6844-.9724l1.81,1.5734c-2.1846.5935-5.0182,2.1268-7.4686,1.1553.8707,1.9749.6179-.1137,2.0912,2.2684-1.1522-2.8574,6.4869,1.1284,4.4021-2.0093,1.4721,2.726,3.045,1.5332,5.1479,3.9932.0173-.6119-.6818-1.2825,1.4073-.6523a2.5712,2.5712,0,0,1,.5494-.4551,1.2546,1.2546,0,0,1,.1372.0673l-.1069-.0893c.1064-.0759.1175-.0933-.04-.0306a2.5328,2.5328,0,0,1-.9471-1.0826c1.27-1.2109,4.6538-.6375,5.9077-1.1715,1.2217.4841-.6332.6066-.0392,1.3543l1.8733-.7987c-.0311,1.3577,3.0316,2.7408-.0683,3.0547l2.6767.48a7.0472,7.0472,0,0,0,5.0377,1.2136c1.229.4647,3.4227-1.0282,2.1649-.1386l4.3413-.2352-.0086.3383c4.1452.7518,8.88-1.0113,13.311,2.0666a11.6679,11.6679,0,0,1,5.2481.3564l.3036,1.2194c1.8508-.1322,5.2617,1.8943,6.1972.7719,1.5462,3.3511,8.6829,1.7591,11.7887,2.7014l.3067-1.4956a27.28,27.28,0,0,0,7.1091-.09l-.007-1.355c2.4661-.8079,5.8946,1.6891,9.61,2.0064-.31.4805-1.233.2327-1.8608-.1589,4.078,3.5567,9.5837-1.1874,13.3508,1.4526a2.5354,2.5354,0,0,1,2.4253.27.5428.5428,0,0,0-.2559.0459,3.1184,3.1184,0,0,0,.4091.06c.4173.2768.8441.5923,1.3146.86a4.63,4.63,0,0,0-1.0935-.8413,13.5706,13.5706,0,0,0,3.1447-.2025l.3387,1.4881c.0953-.0089.17.0027.27-.0118,1.0715.6489.9758-.5845.4878-1.73a5.727,5.727,0,0,0,1.6057-.7048c.6762,2.4165,3.0862-.4637,4.0835,2.1425.8947-1.1267,5.8565-.2918,6.7135-2.78.0069.3358.33.5233-.2917.49,1.251.4019,2.5024.8043,3.7178.189l.37,1.8767,3.0237-2.21c1.5926,1.2636,2.2392,1.9743.4225,3.2322,4.2708-1.8071,3.3807-.5234,7.0318-2.363l-.2732,1.1676c1.2421.0643,3.356-1.3481,4.0171-.303,1.2866,1.2475,4.7056,1.628,8.6677,2.0364,3.9642.3944,8.4793.7106,11.9634,2.0214-1.1293-3.5858,3.1989,1.7953,3.6737-.8878.3566.8534,1.3175,1.39.1132,2.0242,3.6913-.5515,5.3793,1.6968,8.04-.4072.3626.8584-.8569,1.1534-.5186,1.6723.3038-.1593,1.2023-.637,1.5494-.1169.3392.5171-.5772.6546-1.1769.9726,3.73.1235,4.263-2.3939,4.68-4.7616,1.8094,1.2543,2.7624,1.1269,4.2123-.3629.6083.8151,1.6546,1.6892-.6706,1.849,1.29.1828,7.8724,1.5614,8.1074-.3466.3806.5078,1.807.238,2.16.0342a41.0631,41.0631,0,0,0,6.0235.4213l-.7778-.3532c1.24-2.2518,2.4-.3918,4.7182-.5485l-.0765.2315c5.2125,1.9454,2.3133-.6792,7.4542,1.4175l-.2266-1.4485c.6062-3.0741,4.5508,1.9814,7.6273.9017l-1.0647-.8583c1.686-1.0033,4.4833,4.363,6.1424,4.8068.355.2819-.5866.4111-1.1.5915,4.309,1.9755.6231-1.8621,3.8828-2.1912.5709,1.0372-.8459,2.56,1.338,2.8234.5345.4252,2.1445-.3345,3.9848-.9731,1.8418-.6566,3.9117-1.1686,5.3855-.171-.6431-.7935-1.2786-1.5847.2412-2.1506,2.3122-.2455,6.2063,3.0547,8.3307.6154a.8531.8531,0,0,1,.4095.6222c1.7767-.61,5.7576-.9715,6.83-2.295,1.6106,5.0325,10.9838-2.4425,10.9428,2.1574l5.44-.2675-.1387.4686c3.482.2883,4.7017-.8153,5.9086-1.9194.8068.3087.2262.74.1624.9785,5.0909.8674,5.6044.6148,9.81-1.7562l.4751,1.4775c1.1281-.8927,7.41,2.1624,12.3453.3027a1.01,1.01,0,0,1-.5258.6844c5.53-1.9734,13.6229,3.5376,15.4247-1.9568l3.627-1.4935c-4.7963-.2113.5882-2.3788-1.4211-3.1895,1.8544-.3776,4.93,1.3592,2.6431,1.788l-.375-.2476c-.6951,2.8721,5.9828.621,5.9688,2.5485,4.6981-.3849,9.3665-.2809,13.9661-.2481,4.5973.0018,9.1317.0416,13.5469-.2712l-1.2151-2.0987,3.08-.1353c.8517.4159,1.2462,1.6213-.9563,1.714,1.2733,1.1607,3.5752-1.409,3.5887-1.8807,4.3724.4312-1.4225,2.7227-.1047,2.6367l1.7723-.3514-.4287-.2133c1.36-1.0448,1.39-2.0046,4.03-2.1744,1.71.262.9971,1.2558,1.6615,1.2689.0131.1585.2426.207,1.0133-.0409l3.8916-.2237-1.7406-1.5573c1.6165-1.03,3.64-.2931,1.6371-2.0553,2.961,2.7409,14.4992-.7284,16.2209.0127,2.217-1.591,4.5665-1.9291,7.5058-2.21-.7788-.2489-1.4963-2.111,1.0443-2.25-.3143,4.0949,4.8652,1.076,7.3575,3.5545-2.1245-1.5819,7.0725-1.693,3.7665-3.89,2.1467-.0365.3811,1.4618,2.1333,2.1213,4.72-2.3381,11.1732-1.0294,17.2428-2.7648-.0133-.539-1.2011-1.1044-.049-2.1593l3.7861,1.8772c1.162-.5174.4634-3.2182,3.0712-1.9117-.41-.3658-1.02-.9162-.2467-1.2576,6.2714-.0831,12.2753-2.096,18.2985-3.9866a90.9008,90.9008,0,0,1,9.1519-2.51,39.8022,39.8022,0,0,1,9.7031-.94c-1.96-.4124-.9051-.878.319-1.3367-.8844.0446-.4086-1.2365-.8023-1.8591,1.8765.0783,3.7538.0638,5.6551.0766.1963-2.1618,5.3049-2.227,5.0874-4.2227l-1.4317.9771c.6107-1.4793-.6071-2.3-2.0254-3.16-1.4276-.8592-3.0575-1.7237-3.4312-3.121-.6373,1.6356-2.4855,1.279-4.4,1.1359-1.9336-.1589-3.9858-.1871-5.2655,2.1833-1.0034-.2794.4082-1.117-.24-1.6005-.5484,1.4881-1.6344,2.0821-3.9239,2.2323l.149-.3673c-5.8975,2.1347-8.8368,1.7121-15.8333,2.7191l.8621,1.241a5.3546,5.3546,0,0,1-2.7035-.3076c-1.151,2.5327,4.1421-.9723,3.2086,1.7322-2.6437-2.2178-10.4424,2.5176-12.5034-.3448-2.2829.4777,1.0363,1.46-1.2507,1.9359l-.8-.7359-.3271,1.2436a2.546,2.546,0,0,1-2.7474-1.5041c.3811.0085.9841-.4294,1.3578-.5773-2.155-.6031-5.3765,1.5351-6.1135,1.3472l2.299.06c-6.07,2.121-13.9189,2.4585-19.702,5.2363l.5757.58c-4.4575,1.9977-3.8393-.0326-8.8768,1.3013l.1618-.1858a6.5423,6.5423,0,0,1-3.6645,1.485c1.1779-.97-2.6628-1.1455-1.0923-2.2585-4.8673,2.0715-2.3465,1.4071-5.3519,4.375l-.9272-.99c-1.0093,1.1443-1.0339,1.6832-3.5783,2.2959,1.9893-1.2147-1.8664-1.4711.3334-3.0229-5.6975-1.7295-7.7146,3.4568-10.6168.239-2.12,3.3734,4.875,1.1027,3.565,1.9346,1.2895.85-1.7738,2.5458-3.5139,2.4555-1.7453.1338-3.4-3.5993-7.7337-3.077.4339-.031.4383-.2671.8712-.2965-1.708-.6107-3.0763,1.3932-5.2021.3341-.932,1.9721-2.5995.1684-2.691,2.5651l3.94-.9693c-2.1983.8347-4.0541,3.8986-7.9344,2.8505a6.151,6.151,0,0,1,2.036-1.6359c-1.1593-.6058-2.0642.6388-3.2641.0191.0544-1.1976,1.2571-1.4289,2.73-1.612,1.4715-.1883,3.2084-.3785,4.3286-1.402-1.264-.8756-4.4116,2.1961-3.4416-.4937-1.4437,3.4239-4.3222-.0467-7.0494,2.6978l.0715-1.434a5.3162,5.3162,0,0,1-2.2193,1.05l1.3976-1.9705c-2.2538,1.77-4.7082-.9863-6.9217.0622,4.7815-.4475,1.21,1.62,3.32,2.4847-5.7767,2.38-3.6864-3.3713-10.2521-2.2734.8811-.2579,3.4264.6375,2.0711,1.3857a8.988,8.988,0,0,1-3.8108-1.35c-4.3673.5773.7716,1.42-1.0389,2.4134-1.61-1.6361-2.1114.842-4.0091,1.5189l-.1024-1.4439c-5.0634-.6072-1.151,3.0963-5.7343,2.2631l1.7962-2.1248-2.3229.668.3951-1.6749c-2.4892,1.3735-3.31,1.0624-5.8391.7191.633.9908-.2,2.637-2.4255,2.7791-1.5571-.7923.7867-1.411-2.3568-1.0677.6729-.9346,1.3984-2.1039,2.83-.8341.1185-.4772.6586-.9355.7809-1.4093-1.6759-.9153-4.1049-.0458-5.244.0185a2.8888,2.8888,0,0,1,1.2457.2815L848.48,969.93c-.74-.5119-.186-.9729.3615-1.4271-.9181.1991-1.5327.8922-2.8887,1.0753.3094-1.1909.182-2.4009,2.0809-3.0385l-4.2951,1.4942c-.3082-.4982-2.2773-1.3522-1.7268-1.7953-2.4251-.6347-5.8433,2.4211-9.066,1.5842a1.9638,1.9638,0,0,1-1.1652.6415c-3.0143-.1983-5.6943-1.5657-9.2327.1123l-2.0473-2.0989c-2.785.4884,2.77,2.6444-1.8729,3.4586-3.2894.6861-1.2457-1.7941-2.4047-2.3754-1.6242,1.068-4.4676,3.2437-7.4978,1.5394C809.7262,968.6984,810.5116,969.0072,811.4465,968.8474Zm-34.4749.5925c.6763-.273,2.0295-1.1908,2.4977-.3314C778.67,970.753,778.0983,969.962,776.9716,969.44Zm-52.6188,1.1048c.5274-.44,1.2809-.15,2.1151.4575A3.4306,3.4306,0,0,1,724.3528,970.5447ZM577.2,964.8248a.396.396,0,0,0,.0816-.0594C578.6888,965.5318,578.1933,965.2353,577.2,964.8248Zm-2.995-1.0837c-.3393.1491-.3479.353-.2469.5735.2692-.3277.9657-.246,1.7389-.02C575.5337,963.886,575.1739,963.5642,574.2052,963.7411Zm334.5883,13.3757-.6471-.3117C909.4712,976.2452,909.1284,976.6616,908.7935,977.1168Z"/>
          <path class="cls-3" d="M730.4222,968.9387a1.6182,1.6182,0,0,1,.2394.7992C730.9389,969.51,730.9609,969.2285,730.4222,968.9387Z"/>
          <path class="cls-3" d="M832.841,967.8085c.0354.0109.07.0056.1051.0143a.7173.7173,0,0,0,.0991-.2646Z"/>
          <path class="cls-3" d="M623.6362,958.0794a2.5958,2.5958,0,0,1,1.1306.8918C624.8446,958.625,624.5933,958.2915,623.6362,958.0794Z"/>
          <path class="cls-3" d="M557.484,963.6124l2.0355-.0623a2.8056,2.8056,0,0,1-1.7067-.7486C557.8041,963.1427,558.1058,963.6861,557.484,963.6124Z"/>
          <path class="cls-3" d="M541.7826,952.0739c-.3159.1259-.6119-.0857-.9243.0424l-.0313.6768C542.0574,952.962,543,952.5743,541.7826,952.0739Z"/>
          <path class="cls-3" d="M556.403,958.5755c.0334-1.2279-1.2679-1.0126-2.685-1.0062a1.0708,1.0708,0,0,1,.2444.0383C553.2875,959.224,554.8493,958.9007,556.403,958.5755Z"/>
          <path class="cls-3" d="M553.391,957.56a4.9753,4.9753,0,0,1-1.2819-.17C551.84,958.038,552.6045,957.6121,553.391,957.56Z"/>
          <path class="cls-3" d="M570.1736,963.9267c-.6094-.4118-.6446,1.4745-.9421.9268C568.2677,966.27,573.8883,963.6848,570.1736,963.9267Z"/>
          <polygon class="cls-3" points="555.911 954.439 556.171 956.001 557.134 954.925 555.911 954.439"/>
          <path class="cls-3" d="M566.6366,957.2355l-2.1418-.758c-.005.2543-.3075.3551-.6688.4127C565.1767,957.1551,566.6211,957.6831,566.6366,957.2355Z"/>
          <path class="cls-3" d="M563.826,956.89a3.5019,3.5019,0,0,0-1.8136-.03A7.6631,7.6631,0,0,0,563.826,956.89Z"/>
          <polygon class="cls-3" points="558.995 954.465 559.598 954.877 561.137 955.228 558.995 954.465"/>
          <path class="cls-3" d="M590.3365,961.0131l2.4728-.0882c.3172-.4755-.2962-.88-1.2227-.8034C590.959,960.3975,590.0361,960.4688,590.3365,961.0131Z"/>
          <path class="cls-3" d="M583.63,955.9178c.6066.4.6022.7387.8989,1.2794l.34-1.833Z"/>
          <path class="cls-3" d="M590.7134,956.4708c.3128-.4785,3.7-.98.6337-1.2914C591.0317,955.6523,588.56,955.74,590.7134,956.4708Z"/>
          <polygon class="cls-3" points="626.74 963.61 626.123 963.558 625.839 966.601 626.74 963.61"/>
          <path class="cls-3" d="M659.6142,959.9919c-2.7794-1.031-.8754,1.8037-3.3618.6215-.7476.647,2.0326.9655,1.2791,1.5132C659.3375,961.55,660.198,962.0732,659.6142,959.9919Z"/>
          <path class="cls-3" d="M657.5315,962.1266a6.5419,6.5419,0,0,0-.93.367A2.8621,2.8621,0,0,0,657.5315,962.1266Z"/>
          <path class="cls-3" d="M1021.3975,954.5305c.6816-.0349,1.3754-.0982,2.0733-.1639l-1.5774-.4513Z"/>
          <path class="cls-3" d="M1023.9991,950.98l1.2362,1.579.1954-1.0542.2515-1.0937C1025.2,950.7455,1024.5033,951.2332,1023.9991,950.98Z"/>
          <path class="cls-3" d="M771.96,965.3443l-.154.4639c.27.5162.7.5677,1.5613.6774Z"/>
          <polygon class="cls-3" points="796.894 967.294 796.465 967.248 797.253 969.02 796.894 967.294"/>
          <path class="cls-3" d="M817.8277,965.0453c-.8539-.07-1.8541.326-2.7121.2533C816.9729,964.9749,818.0789,967.2379,817.8277,965.0453Z"/>
        </g>
        <g>
          <path class="cls-2" d="M690.782,925.2814a23.5343,23.5343,0,0,1-11.8911-3.0059,21.64,21.64,0,0,1-8.2666-8.3555,26.8958,26.8958,0,0,1,0-24.7109,21.431,21.431,0,0,1,8.2666-8.2666,23.8193,23.8193,0,0,1,11.8911-2.9609,21.7037,21.7037,0,0,1,10.919,2.74,19.965,19.965,0,0,1,7.6914,8.001,26.53,26.53,0,0,1,2.8735,12.8642,26.9209,26.9209,0,0,1-2.8291,12.8194,19.9062,19.9062,0,0,1-7.6475,8.09A21.6006,21.6006,0,0,1,690.782,925.2814Zm.4419-5.57a17.5527,17.5527,0,0,0,8.8857-2.2539,16.096,16.096,0,0,0,6.1885-6.3663,21.2547,21.2547,0,0,0,0-19.0527,16.1769,16.1769,0,0,0-6.1885-6.3213,17.5527,17.5527,0,0,0-8.8857-2.2539,17.1307,17.1307,0,0,0-8.7524,2.2539,16.57,16.57,0,0,0-6.189,6.3213,20.8922,20.8922,0,0,0,0,19.0527,16.4829,16.4829,0,0,0,6.189,6.3663A17.1307,17.1307,0,0,0,691.2239,919.7111Zm17.5054,5.1279V910.87l.6191-9.372-.8843-9.3711V859.2384h6.2774V924.839Z"/>
          <path class="cls-2" d="M745.3308,925.2814a21.9951,21.9951,0,0,1-9.062-1.7246,13.4582,13.4582,0,0,1-5.8794-4.7735,12.3733,12.3733,0,0,1-2.0332-7.0293,12.8611,12.8611,0,0,1,1.7237-6.5869,12.1373,12.1373,0,0,1,5.6586-4.7734q3.9324-1.812,10.565-1.8125h16.0019v4.6855H746.48q-6.72,0-9.3271,2.3867a8.0642,8.0642,0,0,0,.4858,12.2891q3.0938,2.3877,8.6646,2.3877a16.7577,16.7577,0,0,0,9.15-2.4316,13.9653,13.9653,0,0,0,5.6142-7.0284l1.4141,4.3321a14.7434,14.7434,0,0,1-6.1445,7.3379A20.3819,20.3819,0,0,1,745.3308,925.2814Zm16.002-.4424V914.5831l-.2647-1.68V895.7521q0-5.9225-3.3154-9.1065t-9.8584-3.1826a24.5353,24.5353,0,0,0-8.5752,1.5029,21.866,21.866,0,0,0-6.896,3.9786l-2.8291-4.6866a25.09,25.09,0,0,1,8.4873-4.6406,33.0235,33.0235,0,0,1,10.4322-1.6357q9.0176,0,13.9248,4.4648t4.9062,13.57V924.839Z"/>
          <path class="cls-2" d="M784.408,924.839V859.2384h6.2773V924.839Z"/>
          <path class="cls-2" d="M837.9842,924.839V865.6036l2.8291,3.0059h-17.417v-5.6582h20.9531V924.839Z"/>
          <path class="cls-2" d="M875.47,925.3693a38.0531,38.0531,0,0,1-7.9121-.7959,22.3363,22.3363,0,0,1-6.7637-2.5635l2.5635-5.1279a15.7134,15.7134,0,0,0,5.5264,2.2548,31.3782,31.3782,0,0,0,6.498.6631q9.9888,0,15.958-6.3662,5.9677-6.3646,5.9678-19.0078,0-2.0332-.2207-4.8633a29.3432,29.3432,0,0,0-1.0176-5.6582l2.211,1.68a16.0863,16.0863,0,0,1-3.7579,7.8252,18.52,18.52,0,0,1-7.0732,4.9063,24.9053,24.9053,0,0,1-9.3271,1.68,24.45,24.45,0,0,1-10.83-2.2988,17.2121,17.2121,0,0,1-10.0342-16.2676,17.6441,17.6441,0,0,1,10.3-16.665,24.4552,24.4552,0,0,1,10.83-2.3428,24.9875,24.9875,0,0,1,13.88,3.669,22.7568,22.7568,0,0,1,8.5761,10.5654,42.8228,42.8228,0,0,1,2.918,16.709q0,10.434-3.5811,17.5937a24.75,24.75,0,0,1-9.9462,10.7862A29.3027,29.3027,0,0,1,875.47,925.3693Zm3.625-30.7666a18.6379,18.6379,0,0,0,8.3545-1.7686,13.5966,13.5966,0,0,0,5.57-4.8623,12.4831,12.4831,0,0,0,1.9893-6.8965,12.0724,12.0724,0,0,0-1.8565-6.4541,13.7581,13.7581,0,0,0-5.4814-4.9062,19.2861,19.2861,0,0,0-9.0186-1.9014,17.8623,17.8623,0,0,0-7.8242,1.6357,12.4542,12.4542,0,0,0-7.2939,11.8028,12.1927,12.1927,0,0,0,4.2,9.7256Q871.9324,894.6032,879.0945,894.6027Z"/>
          <path class="cls-2" d="M932.4939,925.3693a36.98,36.98,0,0,1-12.6426-2.1661,24.8191,24.8191,0,0,1-9.5478-5.791l3.0937-5.039a22.05,22.05,0,0,0,8.002,5.1279,29.346,29.346,0,0,0,11.0068,2.0332q7.8677,0,11.98-3.4922a11.4252,11.4252,0,0,0,4.1114-9.15,11.0069,11.0069,0,0,0-8.3106-11.3164q-4.5089-1.5923-12.3779-1.5918H914.6355l3.1826-31.0322H951.68V868.61H920.3816l3.2715-3.0938-2.74,25.9922-3.2715-3.1826h11.582q9.3692,0,15.0293,2.2988a16.4247,16.4247,0,0,1,8.1787,6.4092,17.9921,17.9921,0,0,1,2.52,9.5928,18.675,18.675,0,0,1-2.4756,9.5049,17.1332,17.1332,0,0,1-7.4268,6.7627Q940.0961,925.3707,932.4939,925.3693Z"/>
          <path class="cls-2" d="M961.4051,924.839V920.33l25.7275-25.1973a41.4625,41.4625,0,0,0,5.3047-6.0556,15.8889,15.8889,0,0,0,3.0058-9.2393,10.5155,10.5155,0,0,0-3.6689-8.4873q-3.6694-3.0937-10.83-3.0947a25.9372,25.9372,0,0,0-9.6816,1.68,18.2224,18.2224,0,0,0-7.2051,5.2168l-4.5088-3.8907a23.6817,23.6817,0,0,1,9.2832-6.5419,33.3059,33.3059,0,0,1,12.6426-2.2989,27.2436,27.2436,0,0,1,10.874,1.9893,15.2957,15.2957,0,0,1,9.6367,14.7207,21.314,21.314,0,0,1-.84,5.9228,22.2362,22.2362,0,0,1-3.0059,6.1446,48.49,48.49,0,0,1-6.3213,7.2939l-23.6054,23.1641-1.7686-2.4756h38.37v5.6582Z"/>
        </g>
      </g>
    </g>
  </g>
</svg>
