<?xml version="1.0" encoding="UTF-8" standalone="no"?>
<!DOCTYPE svg PUBLIC "-//W3C//DTD SVG 1.1//EN" "http://www.w3.org/Graphics/SVG/1.1/DTD/svg11.dtd">
<svg width="100%" height="100%" viewBox="0 0 621 590" version="1.1" xmlns="http://www.w3.org/2000/svg" xmlns:xlink="http://www.w3.org/1999/xlink" xml:space="preserve" xmlns:serif="http://www.serif.com/" style="fill-rule:evenodd;clip-rule:evenodd;stroke-linejoin:round;stroke-miterlimit:2;">
    <g transform="matrix(1,0,0,1,-689.807586,-4805.487909)">
        <g transform="matrix(0.950401,0,0,0.950401,72.861484,2097.661315)">
            <path d="M1299.692,3122.833C1301.152,3135.003 1301.904,3147.39 1301.904,3159.952C1301.904,3330.467 1163.467,3468.904 992.952,3468.904C910.81,3468.904 836.113,3436.778 780.749,3384.416C804.263,3389.289 826.24,3389.605 846.258,3390.22L846.26,3390.22C858.956,3390.609 871.987,3390.237 885.305,3389.033C913.242,3387.608 958.766,3382.86 1011.111,3365.018C1136.426,3322.32 1251.916,3220.767 1296.709,3129.143C1297.74,3127.034 1298.735,3124.93 1299.692,3122.833Z" style="fill:rgb(44,86,151);"/>
        </g>
        <g transform="matrix(0.916729,0,0,0.909718,1278.521391,5006.608432)">
            <path d="M0,-19.67L-0.06,-19.23C-0.64,-14.97 -1.52,-10.68 -2.709,-6.39C-2.739,-6.27 -2.779,-6.15 -2.81,-6.03C-4.209,-0.99 -6.02,4.06 -8.239,9.08C-29.85,58.16 -91.609,107.65 -177.68,144.891C-259.489,180.28 -356.05,201.41 -436,201.41C-461.35,201.41 -484.709,199.32 -505.409,195.21C-507.22,194.85 -509.01,194.48 -510.779,194.08C-510.789,194.08 -510.81,194.07 -510.819,194.07C-543.47,186.891 -568.33,174.71 -584.76,157.83L-585.069,157.52C-592.01,150.33 -597.43,142.21 -601.239,133.28C-601.17,133.9 -601.109,134.52 -601.029,135.141C-601.029,135.141 -601.33,133.28 -601.33,133.27C-601.39,132.721 -601.449,132.16 -601.51,131.6C-601.649,130.25 -601.77,128.91 -601.89,127.56C-602.01,126.21 -602.119,124.86 -602.229,123.51C-602.319,122.23 -602.409,120.95 -602.489,119.67C-602.59,118.23 -602.67,116.8 -602.739,115.35C-602.779,114.58 -602.819,113.8 -602.85,113.03C-602.89,112.31 -602.909,111.59 -602.939,110.87C-602.989,109.54 -603.029,108.21 -603.06,106.88C-603.069,106.4 -603.08,105.92 -603.09,105.44C-603.1,104.95 -603.109,104.46 -603.109,103.971C-603.149,102.28 -603.159,100.59 -603.159,98.891C-603.159,96.69 -603.14,94.51 -603.09,92.33C-603.08,91.85 -603.069,91.37 -603.06,90.891C-603.029,89.56 -602.989,88.23 -602.939,86.9C-602.909,86.18 -602.89,85.46 -602.85,84.74C-602.84,84.53 -602.83,84.32 -602.819,84.11C-602.8,83.55 -602.77,82.98 -602.739,82.42C-602.67,80.98 -602.59,79.55 -602.489,78.11C-602.409,76.82 -602.319,75.54 -602.229,74.26C-602.119,72.91 -602.01,71.56 -601.89,70.21C-601.77,68.86 -601.649,67.52 -601.51,66.17C-601.289,64.01 -601.05,61.85 -600.789,59.7C-600.77,59.58 -600.76,59.45 -600.739,59.33C-600.609,58.3 -600.479,57.29 -600.35,56.28C-600.22,55.27 -600.08,54.25 -599.93,53.24C-599.789,52.24 -599.64,51.23 -599.479,50.23C-599.33,49.23 -599.17,48.24 -599,47.24C-598.869,46.4 -598.729,45.55 -598.58,44.7C-598.439,43.85 -598.289,43.01 -598.14,42.17C-598,41.33 -597.84,40.48 -597.68,39.641C-597.529,38.8 -597.369,37.96 -597.199,37.12C-597.06,36.36 -596.909,35.6 -596.75,34.84C-596.659,34.41 -596.569,33.971 -596.479,33.53C-595.869,30.57 -595.209,27.63 -594.52,24.7C-594.199,23.37 -593.88,22.04 -593.55,20.721C-593.22,19.4 -592.88,18.08 -592.529,16.76C-592.199,15.53 -591.869,14.3 -591.529,13.07C-590.209,8.31 -588.77,3.59 -587.239,-1.07C-586.85,-2.24 -586.459,-3.4 -586.069,-4.57C-586.02,-4.7 -585.979,-4.83 -585.93,-4.97C-585.43,-6.43 -584.92,-7.88 -584.39,-9.33C-584.34,-9.49 -584.289,-9.64 -584.22,-9.8C-583.709,-11.23 -583.189,-12.65 -582.649,-14.07C-582.109,-15.5 -581.56,-16.93 -581,-18.35C-580.949,-18.47 -580.909,-18.59 -580.859,-18.71C-580.51,-19.58 -580.17,-20.45 -579.81,-21.32C-579.569,-21.93 -579.319,-22.54 -579.06,-23.15C-578.67,-24.1 -578.279,-25.04 -577.88,-25.98C-577.64,-26.56 -577.39,-27.14 -577.13,-27.71C-576.649,-28.85 -576.149,-29.97 -575.649,-31.1C-575.209,-32.11 -574.75,-33.11 -574.289,-34.11C-573.85,-35.08 -573.399,-36.05 -572.939,-37.01C-572.47,-38.04 -571.979,-39.07 -571.479,-40.09C-571,-41.08 -570.52,-42.07 -570.029,-43.05C-569.539,-44.04 -569.05,-45.02 -568.55,-46C-568.05,-46.98 -567.55,-47.95 -567.039,-48.93C-566.279,-50.4 -565.51,-51.85 -564.72,-53.29C-564.34,-53.99 -563.959,-54.69 -563.58,-55.39C-563.17,-56.13 -562.76,-56.87 -562.34,-57.61C-561.81,-58.56 -561.27,-59.51 -560.72,-60.46C-558.56,-64.21 -556.33,-67.92 -554.029,-71.57C-553.42,-72.53 -552.81,-73.49 -552.189,-74.44C-552.029,-74.7 -551.869,-74.96 -551.699,-75.21C-551.59,-75.38 -551.479,-75.55 -551.369,-75.71C-550.569,-76.94 -549.76,-78.16 -548.949,-79.37C-548.229,-80.44 -547.51,-81.5 -546.789,-82.55C-546.76,-82.58 -546.739,-82.61 -546.72,-82.64C-546.1,-83.54 -545.479,-84.43 -544.85,-85.33C-543.459,-87.29 -542.05,-89.24 -540.619,-91.18C-539.81,-92.28 -538.989,-93.37 -538.159,-94.46C-537.189,-95.74 -536.199,-97.01 -535.209,-98.28C-534.369,-99.35 -533.529,-100.42 -532.67,-101.48C-531.979,-102.34 -531.279,-103.2 -530.58,-104.05C-529.689,-105.14 -528.789,-106.22 -527.88,-107.3C-526.64,-108.76 -525.39,-110.22 -524.13,-111.66C-522.029,-114.06 -519.909,-116.42 -517.75,-118.74C-517.64,-118.85 -517.539,-118.97 -517.43,-119.08C-516.56,-120.01 -515.68,-120.94 -514.8,-121.87C-513.029,-123.72 -511.25,-125.55 -509.439,-127.36C-508.539,-128.26 -507.63,-129.16 -506.709,-130.06C-505.789,-130.95 -504.869,-131.84 -503.949,-132.72C-500.819,-135.71 -497.63,-138.62 -494.39,-141.48C-493.67,-142.11 -492.939,-142.75 -492.22,-143.37C-491.489,-144 -490.76,-144.63 -490.02,-145.25C-489.289,-145.87 -488.55,-146.49 -487.819,-147.11C-487.75,-147.16 -487.68,-147.22 -487.619,-147.28C-486.279,-148.39 -484.93,-149.49 -483.569,-150.59C-483.529,-150.61 -483.489,-150.64 -483.459,-150.68C-482.239,-151.66 -481.02,-152.63 -479.779,-153.6C-478.609,-154.51 -477.439,-155.41 -476.26,-156.3C-475.149,-157.14 -474.039,-157.97 -472.92,-158.8C-467.67,-162.67 -462.3,-166.38 -456.81,-169.92C-456.539,-170.1 -456.27,-170.28 -455.989,-170.45C-455.659,-170.67 -455.33,-170.88 -454.989,-171.08C-454.489,-171.4 -454,-171.72 -453.5,-172.03C-452.89,-172.41 -452.279,-172.8 -451.67,-173.18C-444.01,-177.93 -436.13,-182.37 -428.05,-186.48C-426.869,-187.08 -425.68,-187.67 -424.489,-188.26C-423.27,-188.86 -422.05,-189.45 -420.819,-190.04C-419.6,-190.62 -418.369,-191.2 -417.13,-191.77C-415.58,-192.49 -414.029,-193.19 -412.459,-193.88C-411.539,-194.29 -410.619,-194.69 -409.689,-195.09C-407.909,-195.86 -406.13,-196.61 -404.33,-197.34C-403.39,-197.73 -402.439,-198.12 -401.489,-198.49C-392.97,-201.89 -384.27,-204.93 -375.409,-207.59C-375.25,-207.64 -375.08,-207.69 -374.909,-207.74C-374.05,-207.99 -373.189,-208.25 -372.319,-208.5C-371.659,-208.7 -371,-208.89 -370.34,-209.07C-369.209,-209.39 -368.08,-209.71 -366.939,-210.01C-362.93,-211.1 -358.899,-212.11 -354.83,-213.04C-353.39,-213.37 -351.939,-213.69 -350.489,-214C-349.89,-214.13 -349.3,-214.25 -348.709,-214.37C-347.619,-214.6 -346.529,-214.82 -345.43,-215.04C-344.59,-215.21 -343.739,-215.37 -342.899,-215.53C-341.199,-215.85 -339.5,-216.16 -337.8,-216.45C-336.88,-216.6 -335.949,-216.76 -335.029,-216.91C-332.06,-217.39 -329.06,-217.84 -326.06,-218.24C-323.97,-218.52 -321.869,-218.77 -319.77,-219.01C-318.479,-219.16 -317.189,-219.3 -315.899,-219.43C-314.55,-219.57 -313.209,-219.69 -311.859,-219.81C-310.5,-219.93 -309.149,-220.04 -307.8,-220.15C-306.52,-220.24 -305.239,-220.33 -303.959,-220.41C-302.52,-220.51 -301.09,-220.59 -299.649,-220.66C-298.859,-220.7 -298.06,-220.74 -297.27,-220.77C-296.569,-220.81 -295.869,-220.84 -295.17,-220.86C-293.84,-220.91 -292.51,-220.95 -291.17,-220.98C-290.689,-220.99 -290.209,-221 -289.729,-221.01C-287.55,-221.06 -285.369,-221.08 -283.18,-221.08C-280.989,-221.08 -278.81,-221.06 -276.63,-221.01C-276.149,-221 -275.67,-220.99 -275.189,-220.98C-273.859,-220.95 -272.52,-220.91 -271.189,-220.86C-270.47,-220.84 -269.75,-220.81 -269.029,-220.77C-268.26,-220.74 -267.479,-220.7 -266.709,-220.66C-265.27,-220.59 -263.84,-220.51 -262.399,-220.41C-261.119,-220.33 -259.84,-220.24 -258.56,-220.15C-257.209,-220.04 -255.859,-219.93 -254.51,-219.81C-253.149,-219.69 -251.81,-219.57 -250.459,-219.43C-249.17,-219.3 -247.88,-219.16 -246.59,-219.01C-244.489,-218.77 -242.39,-218.52 -240.3,-218.24C-237.3,-217.84 -234.3,-217.39 -231.33,-216.91C-230.409,-216.76 -229.479,-216.6 -228.56,-216.45C-224.899,-215.82 -221.26,-215.13 -217.649,-214.37C-217.06,-214.25 -216.47,-214.13 -215.869,-214C-214.42,-213.69 -212.97,-213.37 -211.529,-213.04C-166.76,-202.78 -125.55,-183.13 -90.109,-156.3C-88.93,-155.41 -87.76,-154.51 -86.59,-153.6C-85.359,-152.63 -84.129,-151.66 -82.91,-150.68C-82.879,-150.64 -82.84,-150.61 -82.8,-150.59C-81.439,-149.49 -80.09,-148.39 -78.75,-147.28C-78.689,-147.22 -78.619,-147.16 -78.55,-147.11C-77.819,-146.49 -77.08,-145.87 -76.35,-145.25C-75.609,-144.63 -74.879,-144 -74.149,-143.37C-73.43,-142.75 -72.699,-142.11 -71.979,-141.48C-68.739,-138.62 -65.55,-135.71 -62.43,-132.72C-61.489,-131.84 -60.569,-130.95 -59.66,-130.06C-58.739,-129.16 -57.83,-128.26 -56.93,-127.36C-55.119,-125.55 -53.33,-123.72 -51.569,-121.87C-50.689,-120.94 -49.81,-120.01 -48.939,-119.08C-48.83,-118.97 -48.729,-118.85 -48.619,-118.74C-46.89,-116.88 -45.18,-114.99 -43.489,-113.08C-42.689,-112.19 -41.91,-111.3 -41.129,-110.4C-39.229,-108.2 -37.35,-105.97 -35.51,-103.72C-34.699,-102.73 -33.89,-101.73 -33.09,-100.73C-29.008,-95.628 -25.095,-90.388 -21.337,-85.043C-17.55,-79.657 -13.928,-74.157 -10.478,-68.55C-8.846,-65.899 -7.252,-63.223 -5.697,-60.524C-4.437,-58.337 -3.073,-56.174 -2.135,-53.823C-0.812,-50.511 -0.448,-47.006 0.011,-43.5C1.051,-35.55 1.04,-27.59 0,-19.67" style="fill:rgb(44,86,151);fill-rule:nonzero;"/>
        </g>
        <g transform="matrix(0.909718,0,0,0.909718,1303.270218,5207.349923)">
            <path d="M0,-186.27C0,-186.24 -0.01,-186.21 -0.02,-186.18C-0.06,-186.05 -0.109,-185.91 -0.149,-185.78C-0.16,-185.76 -0.16,-185.73 -0.17,-185.71C-3.31,-176.06 -7.35,-166.22 -12.22,-156.26C-57.529,-63.58 -174.6,38.84 -301.359,82.03C-354.43,100.12 -400.56,104.879 -428.76,106.3C-442.119,107.52 -455.189,107.9 -467.92,107.51C-498.49,106.57 -533.745,106.659 -572.036,89.357C-616.18,69.411 -631.27,53.36 -654.35,16.84C-656.79,12.98 -658.899,9.14 -660.729,5.35C-671.16,-16.17 -672.64,-36.02 -673.76,-48.08C-673.84,-48.99 -673.96,-50.35 -674.069,-52.09C-674.56,-59.999 -674.84,-75.89 -670.819,-94.71C-664.609,-123.871 -654.479,-130.22 -651.55,-131.31C-651.529,-131.32 -651.51,-131.32 -651.49,-131.33C-650.85,-131.56 -648.99,-132.24 -647.88,-131.38C-646.069,-129.96 -647.699,-125.499 -648.6,-121.28C-649.369,-117.66 -649.38,-114.22 -649.069,-108.791L-649.069,-108.78C-648.979,-107.16 -648.859,-105.36 -648.729,-103.33C-648.729,-103.33 -648.41,-92.8 -644.83,-82.16C-640.84,-70.3 -634.14,-60.041 -625.729,-51.26C-625.71,-51.24 -625.699,-51.22 -625.67,-51.2C-625.66,-51.18 -625.64,-51.16 -625.619,-51.15C-609.81,-34.66 -587.97,-23.35 -566.74,-16.23C-564.26,-15.4 -561.76,-14.61 -559.25,-13.88C-552.34,-11.85 -545.34,-10.16 -538.279,-8.76C-373.25,24.03 -82.399,-71.49 -24.189,-203.65C-19.539,-214.21 -16.369,-225.02 -14.869,-236.01L-14.84,-236.19C-12.49,-253.67 -14.369,-271.63 -21.22,-289.87C-21.84,-291.51 -21.02,-292.96 -19.77,-293.6L-19.71,-293.63C-18.6,-294.17 -17.17,-294.07 -16.13,-292.92C-6.63,-282.47 -1.26,-272.36 1.95,-263.75C10.391,-241.08 9.101,-214.53 0,-186.27" style="fill:rgb(44,86,151);fill-rule:nonzero;"/>
        </g>
    </g>
</svg>
